<svg width="40" height="40" viewBox="0 0 40 40" fill="none" xmlns="http://www.w3.org/2000/svg">
<g>
<path d="M19.2571 22.0365C20.2446 22.0365 21.045 21.236 21.045 20.2486C21.045 19.2612 20.2446 18.4607 19.2571 18.4607C18.2697 18.4607 17.4692 19.2612 17.4692 20.2486C17.4692 21.236 18.2697 22.0365 19.2571 22.0365Z" fill="#E23248"/>
<path d="M14.4074 15.054C15.1973 15.054 15.8377 14.4136 15.8377 13.6237C15.8377 12.8337 15.1973 12.1934 14.4074 12.1934C13.6174 12.1934 12.9771 12.8337 12.9771 13.6237C12.9771 14.4136 13.6174 15.054 14.4074 15.054Z" fill="#D9D6CC"/>
<path d="M2.0512 16.7543C3.18404 16.7543 4.1024 15.8359 4.1024 14.7031C4.1024 13.5702 3.18404 12.6519 2.0512 12.6519C0.918353 12.6519 0 13.5702 0 14.7031C0 15.8359 0.918353 16.7543 2.0512 16.7543Z" fill="#40BB93"/>
<path d="M2.09996 27.5564C3.06584 27.5564 3.84884 26.7734 3.84884 25.8075C3.84884 24.8416 3.06584 24.0586 2.09996 24.0586C1.13408 24.0586 0.351074 24.8416 0.351074 25.8075C0.351074 26.7734 1.13408 27.5564 2.09996 27.5564Z" fill="#40BB93"/>
<path d="M6.39418 21.679C7.18412 21.679 7.82449 21.0386 7.82449 20.2487C7.82449 19.4587 7.18412 18.8184 6.39418 18.8184C5.60424 18.8184 4.96387 19.4587 4.96387 20.2487C4.96387 21.0386 5.60424 21.679 6.39418 21.679Z" fill="#4FB9DB"/>
<path d="M8.92006 14.1602C9.71 14.1602 10.3504 13.5198 10.3504 12.7299C10.3504 11.9399 9.71 11.2996 8.92006 11.2996C8.13012 11.2996 7.48975 11.9399 7.48975 12.7299C7.48975 13.5198 8.13012 14.1602 8.92006 14.1602Z" fill="#2378AC"/>
<path d="M11.4655 18.8899C12.0669 18.8899 12.5544 18.4023 12.5544 17.8009C12.5544 17.1995 12.0669 16.7119 11.4655 16.7119C10.864 16.7119 10.3765 17.1995 10.3765 17.8009C10.3765 18.4023 10.864 18.8899 11.4655 18.8899Z" fill="#D9D6CC"/>
<path d="M19.2572 40.0031C20.2231 40.0031 21.0061 39.2201 21.0061 38.2543C21.0061 37.2884 20.2231 36.5054 19.2572 36.5054C18.2913 36.5054 17.5083 37.2884 17.5083 38.2543C17.5083 39.2201 18.2913 40.0031 19.2572 40.0031Z" fill="#40BB93"/>
<path d="M36.7396 27.5564C37.7055 27.5564 38.4885 26.7734 38.4885 25.8075C38.4885 24.8416 37.7055 24.0586 36.7396 24.0586C35.7737 24.0586 34.9907 24.8416 34.9907 25.8075C34.9907 26.7734 35.7737 27.5564 36.7396 27.5564Z" fill="#40BB93"/>
<path d="M29.9486 7.3337C30.9145 7.3337 31.6975 6.5507 31.6975 5.58482C31.6975 4.61894 30.9145 3.83594 29.9486 3.83594C28.9827 3.83594 28.1997 4.61894 28.1997 5.58482C28.1997 6.5507 28.9827 7.3337 29.9486 7.3337Z" fill="#40BB93"/>
<path d="M8.72154 7.3337C9.68742 7.3337 10.4704 6.5507 10.4704 5.58482C10.4704 4.61894 9.68742 3.83594 8.72154 3.83594C7.75566 3.83594 6.97266 4.61894 6.97266 5.58482C6.97266 6.5507 7.75566 7.3337 8.72154 7.3337Z" fill="#40BB93"/>
<path d="M8.72161 36.8338C9.85445 36.8338 10.7728 35.9155 10.7728 34.7826C10.7728 33.6498 9.85445 32.7314 8.72161 32.7314C7.58876 32.7314 6.67041 33.6498 6.67041 34.7826C6.67041 35.9155 7.58876 36.8338 8.72161 36.8338Z" fill="#40BB93"/>
<path d="M29.9487 36.8338C31.0815 36.8338 31.9999 35.9155 31.9999 34.7826C31.9999 33.6498 31.0815 32.7314 29.9487 32.7314C28.8158 32.7314 27.8975 33.6498 27.8975 34.7826C27.8975 35.9155 28.8158 36.8338 29.9487 36.8338Z" fill="#40BB93"/>
<path d="M36.5478 16.569C37.6806 16.569 38.599 15.6506 38.599 14.5178C38.599 13.3849 37.6806 12.4666 36.5478 12.4666C35.4149 12.4666 34.4966 13.3849 34.4966 14.5178C34.4966 15.6506 35.4149 16.569 36.5478 16.569Z" fill="#40BB93"/>
<path d="M19.2573 4.1024C20.3901 4.1024 21.3085 3.18404 21.3085 2.0512C21.3085 0.918353 20.3901 0 19.2573 0C18.1244 0 17.2061 0.918353 17.2061 2.0512C17.2061 3.18404 18.1244 4.1024 19.2573 4.1024Z" fill="#40BB93"/>
<path d="M15.3009 9.46609C16.0909 9.46609 16.7312 8.82572 16.7312 8.03578C16.7312 7.24584 16.0909 6.60547 15.3009 6.60547C14.511 6.60547 13.8706 7.24584 13.8706 8.03578C13.8706 8.82572 14.511 9.46609 15.3009 9.46609Z" fill="#4FB9DB"/>
<path d="M29.6139 14.1602C30.4038 14.1602 31.0442 13.5198 31.0442 12.7299C31.0442 11.9399 30.4038 11.2996 29.6139 11.2996C28.824 11.2996 28.1836 11.9399 28.1836 12.7299C28.1836 13.5198 28.824 14.1602 29.6139 14.1602Z" fill="#4FB9DB"/>
<path d="M29.6139 29.2239C30.4038 29.2239 31.0442 28.5835 31.0442 27.7936C31.0442 27.0037 30.4038 26.3633 29.6139 26.3633C28.824 26.3633 28.1836 27.0037 28.1836 27.7936C28.1836 28.5835 28.824 29.2239 29.6139 29.2239Z" fill="#4FB9DB"/>
<path d="M15.3009 33.8821C16.0909 33.8821 16.7312 33.2417 16.7312 32.4518C16.7312 31.6619 16.0909 31.0215 15.3009 31.0215C14.511 31.0215 13.8706 31.6619 13.8706 32.4518C13.8706 33.2417 14.511 33.8821 15.3009 33.8821Z" fill="#4FB9DB"/>
<path d="M24.0778 15.2393C24.8677 15.2393 25.5081 14.5989 25.5081 13.809C25.5081 13.019 24.8677 12.3787 24.0778 12.3787C23.2878 12.3787 22.6475 13.019 22.6475 13.809C22.6475 14.5989 23.2878 15.2393 24.0778 15.2393Z" fill="#D9D6CC"/>
<path d="M27.0914 24.3577C27.8814 24.3577 28.5218 23.7173 28.5218 22.9274C28.5218 22.1374 27.8814 21.4971 27.0914 21.4971C26.3015 21.4971 25.6611 22.1374 25.6611 22.9274C25.6611 23.7173 26.3015 24.3577 27.0914 24.3577Z" fill="#D9D6CC"/>
<path d="M19.257 30.1145C20.0469 30.1145 20.6873 29.4742 20.6873 28.6842C20.6873 27.8943 20.0469 27.2539 19.257 27.2539C18.467 27.2539 17.8267 27.8943 17.8267 28.6842C17.8267 29.4742 18.467 30.1145 19.257 30.1145Z" fill="#D9D6CC"/>
<path d="M11.4655 24.3577C12.2554 24.3577 12.8958 23.7173 12.8958 22.9274C12.8958 22.1374 12.2554 21.4971 11.4655 21.4971C10.6755 21.4971 10.0352 22.1374 10.0352 22.9274C10.0352 23.7173 10.6755 24.3577 11.4655 24.3577Z" fill="#D9D6CC"/>
<path d="M8.92006 29.2239C9.71 29.2239 10.3504 28.5835 10.3504 27.7936C10.3504 27.0037 9.71 26.3633 8.92006 26.3633C8.13012 26.3633 7.48975 27.0037 7.48975 27.7936C7.48975 28.5835 8.13012 29.2239 8.92006 29.2239Z" fill="#2378AC"/>
<path d="M23.1871 33.8821C23.9771 33.8821 24.6175 33.2417 24.6175 32.4518C24.6175 31.6619 23.9771 31.0215 23.1871 31.0215C22.3972 31.0215 21.7568 31.6619 21.7568 32.4518C21.7568 33.2417 22.3972 33.8821 23.1871 33.8821Z" fill="#2378AC"/>
<path d="M32.1266 21.679C32.9165 21.679 33.5569 21.0386 33.5569 20.2487C33.5569 19.4587 32.9165 18.8184 32.1266 18.8184C31.3367 18.8184 30.6963 19.4587 30.6963 20.2487C30.6963 21.0386 31.3367 21.679 32.1266 21.679Z" fill="#2378AC"/>
<path d="M23.3663 9.46609C24.1563 9.46609 24.7967 8.82572 24.7967 8.03578C24.7967 7.24584 24.1563 6.60547 23.3663 6.60547C22.5764 6.60547 21.936 7.24584 21.936 8.03578C21.936 8.82572 22.5764 9.46609 23.3663 9.46609Z" fill="#2378AC"/>
<path d="M19.2667 13.1101C19.8682 13.1101 20.3557 12.6225 20.3557 12.0211C20.3557 11.4197 19.8682 10.9321 19.2667 10.9321C18.6653 10.9321 18.1777 11.4197 18.1777 12.0211C18.1777 12.6225 18.6653 13.1101 19.2667 13.1101Z" fill="#D9D6CC"/>
<path d="M27.0914 18.8899C27.6929 18.8899 28.1804 18.4023 28.1804 17.8009C28.1804 17.1995 27.6929 16.7119 27.0914 16.7119C26.49 16.7119 26.0024 17.1995 26.0024 17.8009C26.0024 18.4023 26.49 18.8899 27.0914 18.8899Z" fill="#D9D6CC"/>
<path d="M24.0782 27.9885C24.6797 27.9885 25.1672 27.501 25.1672 26.8995C25.1672 26.2981 24.6797 25.8105 24.0782 25.8105C23.4768 25.8105 22.9893 26.2981 22.9893 26.8995C22.9893 27.501 23.4768 27.9885 24.0782 27.9885Z" fill="#D9D6CC"/>
<path d="M14.4821 28.1999C15.0835 28.1999 15.571 27.7124 15.571 27.111C15.571 26.5095 15.0835 26.022 14.4821 26.022C13.8806 26.022 13.3931 26.5095 13.3931 27.111C13.3931 27.7124 13.8806 28.1999 14.4821 28.1999Z" fill="#D9D6CC"/>
</g>
</svg>
